Coordinates
version=1
nRows=19
nColumns=33
inDegrees=yes

Units are S.I. units (second, meters, Newtons, ...)
Angles are in degrees.

endheader
time	ground_thorax_rot_x	ground_thorax_rot_y	ground_thorax_rot_z	ground_thorax_tx	ground_thorax_ty	ground_thorax_tz	clav_prot_r	clav_elev_r	scapula_abduction_r	scapula_elevation_r	scapula_upward_rot_r	scapula_winging_r	shoulder_elv_r	plane_of_elev_r	axial_rot_r	elbow_flexion_r	pro_sup_r	wrist_flex_r	wrist_dev_r	clav_prot_l	clav_elev_l	scapula_abduction_l	scapula_elevation_l	scapula_upward_rot_l	scapula_winging_l	shoulder_elv_l	plane_of_elev_l	axial_rot_l	elbow_flexion_l	pro_sup_l	wrist_flex_l	wrist_dev_l
      3.31000000	    -39.13472342	     -3.59337131	      4.25225068	    -72.59725195	    815.52194776	      1.33283685	      6.34768142	    -45.00000000	     45.00000000	    -45.00000000	    -12.03042423	  -2253.13813781	  -4255.14391691	     29.90173493	     71.55768211	   2530.34029749	     13.65719657	     18.44467477	     11.43845192	     17.47384741	     42.26999124	    -45.00000000	    -43.94848239	    -33.98583172	   2239.69133348	  -4973.68146778	     24.48666314	    -24.80645254	   1807.26573859	      3.97884879	     14.76503030	    -19.15158854
      3.32000000	    -38.91472503	     -4.23286613	      4.82860009	    -70.57046597	    811.93746209	      1.78642695	      6.94945556	    -45.00000000	     45.00000000	    -45.00000000	    -13.32908271	  -2252.80993298	  -4255.28369511	     29.81739875	     71.49459240	   2530.22186627	     13.16337982	     18.16839614	     11.56470451	     17.55163310	     41.96701483	    -45.00000000	    -43.53897470	    -34.74697625	   2239.78298422	  -4974.08756085	     24.84143495	    -24.96563812	   1806.99408149	      4.09530504	     14.58240528	    -19.04058980
      3.33000000	    -38.71723653	     -4.48002779	      4.93759785	    -68.71821145	    808.60997960	      2.26254030	      7.06833461	    -45.00000000	     45.00000000	    -45.00000000	    -13.71378733	  -2252.64241997	  -4255.54496862	     29.69188030	     71.86943805	   2530.03569337	     12.46186478	     17.95251641	     11.58409450	     17.28119646	     41.59045493	    -45.00000000	    -42.88047746	    -34.51042856	   2239.78731820	  -4974.20117375	     24.76599225	    -24.91955456	   1806.71657100	      4.18091576	     14.70528513	    -18.83975149
      3.34000000	    -38.50673776	     -4.19167969	      4.39876692	    -67.03967061	    805.54357144	      2.74953881	      6.51911512	    -45.00000000	     45.00000000	    -45.00000000	    -12.99644754	  -2252.25102941	  -4255.77207451	     29.32285804	     72.58257657	   2529.77259455	     11.25243001	     17.65848254	     11.83928067	     17.64221202	     41.11506271	    -45.00000000	    -42.17835371	    -33.07043133	   2239.50089478	  -4974.33304341	     24.31870783	    -24.59456039	   1806.42573456	      4.30309764	     15.05229880	    -18.59151413
      3.35000000	    -38.27709131	     -5.02368090	      5.20515087	    -65.53726610	    802.74512575	      3.23868215	      7.30013271	    -45.00000000	     45.00000000	    -45.00000000	    -14.55864548	  -2252.37798967	  -4256.12441166	     29.48177677	     73.59115275	   2529.47466975	     10.47767922	     17.45509215	     11.50009629	     16.12243571	     40.53109167	    -45.00000000	    -41.51270543	    -33.64648797	   2239.46396935	  -4974.20664508	     24.01108279	    -25.20179685	   1806.29072380	      4.59772794	     15.11513782	    -18.45444674
      3.36000000	    -38.07074072	     -4.78351233	      4.62286209	    -64.21595752	    800.21680269	      3.71638631	      6.88344246	    -45.00000000	     45.00000000	    -45.00000000	    -13.72761223	  -2252.07287373	  -4256.14955318	     29.05708877	     73.91904359	   2529.39451191	      9.30715713	     17.32110318	     11.91005825	     17.05635004	     40.41583719	    -45.00000000	    -41.01592651	    -32.69593373	   2239.76878987	  -4974.90068002	     24.50095433	    -24.94974680	   1805.80693047	      4.82079785	     14.83993588	    -18.26439463
      3.37000000	    -37.94692768	     -4.71483807	      4.26800461	    -63.08431638	    797.98183282	      4.16709783	      6.53611013	    -45.00000000	     45.00000000	    -45.00000000	    -13.35505275	  -2251.80548253	  -4256.37373114	     28.70450936	     74.83705048	   2529.13147621	      7.74307450	     17.06413085	     12.11649350	     17.17425892	     40.28498583	    -45.00000000	    -40.49517798	    -31.72318853	   2239.59917518	  -4974.94473835	     24.18119635	    -24.68150405	   1805.53889335	      5.33607755	     14.84861506	    -18.13876940
      3.38000000	    -37.73578835	     -5.66388098	      5.05392476	    -62.14684435	    796.04359564	      4.57208228	      7.23156821	    -45.00000000	     45.00000000	    -45.00000000	    -15.06483507	  -2251.86165903	  -4256.55509794	     28.82114330	     76.07323238	   2528.95133151	      7.00173831	     16.88324239	     11.92352723	     15.71271091	     39.22527512	    -45.00000000	    -40.01144936	    -32.14870315	   2239.38357559	  -4974.78629731	     23.53305405	    -24.95233150	   1805.46158506	      5.87435390	     14.89033908	    -18.01633369
      3.39000000	    -37.59694143	     -5.52508190	      4.54467941	    -61.41004570	    794.40326595	      4.91617205	      7.05700133	    -45.00000000	     45.00000000	    -45.00000000	    -14.46207787	  -2251.82349959	  -4256.70210850	     28.58206376	     76.17714910	   2528.83775660	      6.08117702	     16.75526003	     12.05280151	     16.49955295	     39.49203095	    -45.00000000	    -39.42264413	    -31.62333176	   2239.83413053	  -4974.94524791	     24.10068826	    -24.77076108	   1805.20283991	      6.46783413	     14.53445422	    -17.94978081
      3.40000000	    -37.50057016	     -5.58394467	      4.20230913	    -60.88268448	    793.05569385	      5.18283709	      6.94927397	    -45.00000000	     45.00000000	    -45.00000000	    -14.26378940	  -2251.72989654	  -4256.84656215	     28.39604240	     76.78591640	   2528.71224559	      5.19983166	     16.63409153	     12.14733569	     16.45806504	     39.44185757	    -45.00000000	    -39.15016057	    -31.11887809	   2239.88562766	  -4975.17990736	     24.19874485	    -24.65521350	   1804.96611207	      7.35545542	     14.29951246	    -17.91309406
      3.41000000	    -37.40488811	     -5.79330630	      4.03865012	    -60.56878825	    791.96832900	      5.36460193	      6.93808966	    -45.00000000	     45.00000000	    -45.00000000	    -14.42956314	  -2251.65033753	  -4256.95546165	     28.26298259	     77.38424118	   2528.58740115	      4.56888839	     16.50547123	     12.20039190	     16.32952880	     39.18372623	    -45.00000000	    -38.80786028	    -30.72798341	   2239.90985171	  -4975.18730770	     24.09535418	    -24.50816791	   1804.83067689	      8.29047220	     14.07255039	    -17.89567547
      3.42000000	    -37.31826798	     -5.98778175	      3.80554253	    -60.47172492	    791.09547504	      5.45743682	      6.88113713	    -45.00000000	     45.00000000	    -45.00000000	    -14.51104447	  -2251.56393790	  -4256.98490039	     28.13310568	     77.91035721	   2528.54545732	      4.20543458	     16.41613134	     12.29928520	     16.33766769	     38.87680023	    -45.00000000	    -38.56267424	    -30.29726940	   2239.97340847	  -4975.30551547	     24.02121654	    -24.40021083	   1804.64603306	      9.20550886	     13.75265334	    -17.87499784
      3.43000000	    -37.29825148	     -6.21419543	      3.61951897	    -60.59912953	    790.40515888	      5.46480527	      6.87133368	    -45.00000000	     45.00000000	    -45.00000000	    -14.65506752	  -2251.50641073	  -4257.09013245	     27.98365152	     78.28326311	   2528.56788406	      4.02431424	     16.39920445	     12.37785651	     16.27088793	     38.92842957	    -45.00000000	    -38.42626810	    -30.05257871	   2240.06003197	  -4975.37256801	     24.01507038	    -24.31186582	   1804.54927653	     10.17447322	     13.37962214	    -17.92733842
      3.44000000	    -37.21073453	     -6.44403622	      3.45583114	    -60.95875977	    789.87894867	      5.39423314	      6.87340681	    -45.00000000	     45.00000000	    -45.00000000	    -14.83522078	  -2251.55277067	  -4257.09370091	     27.90173368	     78.62293268	   2528.56426201	      4.06277184	     16.39400361	     12.43492503	     16.25155505	     38.89957490	    -45.00000000	    -38.18154189	    -29.89251634	   2240.21087842	  -4975.34109514	     23.97870555	    -24.19167694	   1804.61541333	     11.08366345	     12.97743556	    -18.01425036
      3.45000000	    -37.24811537	     -6.60504171	      3.16965554	    -61.55998783	    789.48600272	      5.25717852	      6.91125658	    -45.00000000	     45.00000000	    -45.00000000	    -14.95044459	  -2251.55109702	  -4257.28908763	     27.83477485	     78.86653633	   2528.46374201	      4.29846575	     16.39813226	     12.40932670	     16.20297803	     39.03103223	    -45.00000000	    -38.27090378	    -29.89847676	   2240.20812259	  -4975.33616560	     24.03580993	    -24.24401216	   1804.62582918	     12.08169142	     12.83721368	    -18.12907731
      3.46000000	    -37.20712516	     -6.81260838	      2.99003845	    -62.41127992	    789.20459877	      5.06699002	      6.90714166	    -45.00000000	     45.00000000	    -45.00000000	    -15.23164060	  -2251.57364922	  -4257.25431000	     27.77978714	     79.15162910	   2528.47311961	      4.72501077	     16.44351188	     12.49242083	     16.24899987	     39.06150695	    -45.00000000	    -38.12436694	    -29.80096403	   2240.36627234	  -4975.27436717	     23.99277163	    -24.13235994	   1804.59812874	     12.98953385	     12.40913251	    -18.21642927
      3.47000000	    -37.27764188	     -6.97082811	      2.77805125	    -63.52150947	    789.01380158	      4.83753071	      7.00775346	    -45.00000000	     45.00000000	    -45.00000000	    -15.34994069	  -2251.68768965	  -4257.41047986	     27.71593572	     79.31780545	   2528.50411334	      5.31969491	     16.52988191	     12.36041313	     16.20673468	     39.19218423	    -45.00000000	    -38.35613935	    -29.98571591	   2240.28622552	  -4975.26466834	     24.02146566	    -24.29165472	   1804.61522358	     14.00565463	     12.50205302	    -18.34761353
      3.48000000	    -37.28127808	     -7.17946403	      2.58395131	    -64.90151948	    788.89489971	      4.58100402	      6.99703309	    -45.00000000	     45.00000000	    -45.00000000	    -15.70177755	  -2251.74531388	  -4257.35101521	     27.74054129	     79.67940059	   2528.57287776	      6.07274540	     16.62973685	     12.46253236	     16.29923282	     39.23756126	    -45.00000000	    -38.34849491	    -30.04106340	   2240.46721911	  -4975.25475234	     23.99801104	    -24.21364588	   1804.61140670	     14.80534144	     12.01685826	    -18.44484823
      3.49000000	    -37.32146673	     -7.35954933	      2.43188816	    -66.55908369	    788.83402168	      4.30713814	      7.03431718	    -45.00000000	     44.95109527	    -45.00000000	    -16.07588918	  -2251.84321829	  -4257.38891219	     27.67138472	     79.99417356	   2528.60641033	      6.88186926	     16.74224722	     12.23933991	     16.22734955	     39.28272050	    -45.00000000	    -38.52880085	    -30.31780751	   2240.45831477	  -4975.11501306	     23.93626853	    -24.49186505	   1804.75497644	     15.61891384	     12.36160962	    -18.60598320
